<svg preserveAspectRatio="none" width="100%" height="100%" overflow="visible" style="display: block;" viewBox="0 0 28 28" fill="none" xmlns="http://www.w3.org/2000/svg">
<g id="Icon">
<path id="Vector" d="M12.8532 3.28295C12.9032 3.01532 13.0452 2.7736 13.2546 2.59965C13.4641 2.4257 13.7278 2.33049 14 2.33049C14.2723 2.33049 14.536 2.4257 14.7454 2.59965C14.9548 2.7736 15.0969 3.01532 15.1468 3.28295L16.373 9.76728C16.4601 10.2283 16.6841 10.6523 17.0159 10.9841C17.3476 11.3158 17.7717 11.5399 18.2327 11.6269L24.717 12.8531C24.9846 12.9031 25.2264 13.0451 25.4003 13.2546C25.5743 13.464 25.6695 13.7277 25.6695 13.9999C25.6695 14.2722 25.5743 14.5359 25.4003 14.7453C25.2264 14.9548 24.9846 15.0968 24.717 15.1468L18.2327 16.3729C17.7717 16.46 17.3476 16.6841 17.0159 17.0158C16.6841 17.3476 16.4601 17.7716 16.373 18.2326L15.1468 24.7169C15.0969 24.9846 14.9548 25.2263 14.7454 25.4002C14.536 25.5742 14.2723 25.6694 14 25.6694C13.7278 25.6694 13.4641 25.5742 13.2546 25.4002C13.0452 25.2263 12.9032 24.9846 12.8532 24.7169L11.627 18.2326C11.5399 17.7716 11.3159 17.3476 10.9841 17.0158C10.6524 16.6841 10.2284 16.46 9.76735 16.3729L3.28302 15.1468C3.01539 15.0968 2.77367 14.9548 2.59972 14.7453C2.42577 14.5359 2.33056 14.2722 2.33056 13.9999C2.33056 13.7277 2.42577 13.464 2.59972 13.2546C2.77367 13.0451 3.01539 12.9031 3.28302 12.8531L9.76735 11.6269C10.2284 11.5399 10.6524 11.3158 10.9841 10.9841C11.3159 10.6523 11.5399 10.2283 11.627 9.76728L12.8532 3.28295Z" stroke="var(--stroke-0, white)" stroke-width="2.33333" stroke-linecap="round" stroke-linejoin="round"/>
<path id="Vector_2" d="M23.3333 2.33333V7" stroke="var(--stroke-0, white)" stroke-width="2.33333" stroke-linecap="round" stroke-linejoin="round"/>
<path id="Vector_3" d="M25.6667 4.66667H21" stroke="var(--stroke-0, white)" stroke-width="2.33333" stroke-linecap="round" stroke-linejoin="round"/>
<path id="Vector_4" d="M4.66667 25.6667C5.95533 25.6667 7 24.622 7 23.3333C7 22.0447 5.95533 21 4.66667 21C3.378 21 2.33333 22.0447 2.33333 23.3333C2.33333 24.622 3.378 25.6667 4.66667 25.6667Z" stroke="var(--stroke-0, white)" stroke-width="2.33333" stroke-linecap="round" stroke-linejoin="round"/>
</g>
</svg>
