<svg preserveAspectRatio="none" width="100%" height="100%" overflow="visible" style="display: block;" viewBox="0 0 47.8143 87.25" fill="none" xmlns="http://www.w3.org/2000/svg">
<g id="Group 48">
<path id="Vector" d="M25.6908 54.677C23.5493 51.8096 41.6609 38.9609 42.6772 23.5896C43.2398 14.9694 38.2491 8.67207 37.5958 7.85541C31.4074 0.269592 22.3697 0.233296 21.299 0.251444C20.0831 0.251444 11.844 0.523662 5.81886 7.52875C5.16553 8.29096 -0.224395 14.7698 0.283746 23.5896C1.19114 39.0879 19.7746 51.6826 17.6513 54.6225C17.3609 55.0036 16.8165 55.0944 14.7113 56.7095C14.7113 56.7095 13.3865 57.7258 12.5336 58.9962C12.5336 58.9962 12.4428 59.1232 12.3702 59.2321C8.19623 65.5839 9.81139 76.2367 12.6425 77.4889C13.1506 77.7067 14.058 77.7793 14.4754 77.253C15.0198 76.5633 14.421 75.2385 14.0035 73.3693C13.7858 72.4256 13.0599 69.0864 13.9128 65.9468C14.0761 65.3298 14.2576 64.8761 14.3121 64.7491C15.1287 62.6984 16.8346 60.4117 17.7602 60.5388C18.7039 60.6658 19.6294 63.4606 19.7746 74.3674C19.9379 75.4745 20.6457 76.273 21.4805 76.273C22.3153 76.273 23.0049 75.4745 23.1682 74.3856C23.3316 63.4606 24.2753 60.6658 25.2189 60.5388C26.1445 60.4117 27.8685 62.6983 28.7034 64.7672C28.7578 64.8942 28.9211 65.3479 29.1026 65.965C29.9555 69.0864 29.2115 72.4256 29.0119 73.3875C28.5945 75.2748 27.9956 76.5815 28.54 77.2711C28.9574 77.7974 29.8467 77.743 30.373 77.507C33.204 76.273 34.8192 65.6202 30.6452 59.2503C30.5726 59.1232 30.4818 59.0143 30.4818 59.0143C30.2641 58.7058 29.8467 58.1251 29.2478 57.4899C27.433 55.5299 26.1626 55.2759 25.7271 54.7133L25.6908 54.677Z" fill="var(--fill-0, #AB1B31)" stroke="var(--stroke-0, #AB1B31)" stroke-width="0.5" stroke-miterlimit="10"/>
<path id="Vector_2" d="M21.7978 31.0459C26.0074 31.0459 29.4199 27.6334 29.4199 23.4238C29.4199 19.2143 26.0074 15.8017 21.7978 15.8017C17.5882 15.8017 14.1757 19.2143 14.1757 23.4238C14.1757 27.6334 17.5882 31.0459 21.7978 31.0459Z" fill="var(--fill-0, #FEFAFA)"/>
<g id="Group">
<path id="Vector_3" d="M9.80202 81.098C9.91091 81.225 10.0016 81.0435 10.0379 81.0435C9.82017 80.8802 9.76573 81.1524 9.80202 81.098Z" fill="var(--fill-0, #AB1B31)"/>
<path id="Vector_4" d="M7.69688 79.4101L7.78761 79.392L7.38835 79.1923L7.69688 79.4101Z" fill="var(--fill-0, #AB1B31)"/>
<path id="Vector_5" d="M6.28132 77.3413C6.13614 77.7224 6.80762 78.0854 6.97095 78.5209V78.6298H7.27946C6.91651 78.2124 6.40836 77.7043 6.28132 77.3413Z" fill="var(--fill-0, #AB1B31)"/>
<path id="Vector_6" d="M6.24503 75.8532C6.17243 75.9802 6.0091 75.6536 6.35391 76.1435C6.35391 76.1073 6.35391 76.1073 6.35391 76.0891C6.33576 76.0528 6.29947 75.9802 6.24503 75.8713V75.8532Z" fill="var(--fill-0, #AB1B31)"/>
<path id="Vector_7" d="M6.35392 76.0709C6.48096 76.2886 6.35392 75.8712 6.35392 76.0709Z" fill="var(--fill-0, #AB1B31)"/>
<path id="Vector_8" d="M5.79135 75.0365L6.02727 75.2906C6.06356 75.1998 5.95468 74.9276 6.04542 75.0002C5.84579 74.7099 5.80949 74.8006 5.7732 75.0365H5.79135Z" fill="var(--fill-0, #AB1B31)"/>
<path id="Vector_9" d="M5.44652 74.8369L5.55542 74.9821C5.55542 74.9821 5.55541 74.8914 5.44652 74.8369Z" fill="var(--fill-0, #AB1B31)"/>
<path id="Vector_10" d="M5.79137 75.2905L5.55545 74.982C5.55545 74.982 5.42841 75.0909 5.66434 75.1272C5.5736 75.1272 5.66434 75.1635 5.80952 75.2905H5.79137Z" fill="var(--fill-0, #AB1B31)"/>
<path id="Vector_11" d="M5.84577 75.4902C5.86392 75.6899 5.93652 75.9439 5.68245 75.6717C6.00911 76.2525 6.17243 76.0528 5.84577 75.4902Z" fill="var(--fill-0, #AB1B31)"/>
<path id="Vector_12" d="M5.91837 77.3957L5.97281 77.6679L6.19059 77.8131C6.0817 77.7405 5.99096 77.3412 5.91837 77.3957Z" fill="var(--fill-0, #AB1B31)"/>
<path id="Vector_13" d="M5.21061 73.0403C5.21061 73.0403 5.06543 73.2036 4.99283 73.2581L5.15617 73.4759C5.15617 73.3488 5.11987 73.0948 5.21061 73.0585V73.0403Z" fill="var(--fill-0, #AB1B31)"/>
<path id="Vector_14" d="M4.99283 73.2399L4.77506 72.9314C4.84765 73.2399 4.93838 73.2944 4.99283 73.2399Z" fill="var(--fill-0, #AB1B31)"/>
<path id="Vector_15" d="M5.0836 74.9276L5.55545 75.3995L5.02916 74.8187L5.0836 74.9276Z" fill="var(--fill-0, #AB1B31)"/>
<path id="Vector_16" d="M4.86579 71.6974L5.06542 71.8607L4.75691 71.5522L4.86579 71.6974Z" fill="var(--fill-0, #AB1B31)"/>
<path id="Vector_17" d="M4.66618 70.7718C4.82951 70.8988 4.84766 70.5177 4.95655 70.681C4.90211 70.4269 4.73878 70.2455 4.62989 70.0458C4.70248 70.2455 4.73877 70.4632 4.66618 70.7718Z" fill="var(--fill-0, #AB1B31)"/>
<path id="Vector_18" d="M4.44842 69.7374C4.48471 69.8462 4.5573 69.937 4.62989 70.0459C4.5936 69.937 4.53916 69.8281 4.44842 69.7374Z" fill="var(--fill-0, #AB1B31)"/>
<path id="Vector_19" d="M4.62987 72.3143C4.62987 72.3143 4.7569 72.1873 4.7569 71.9877L4.59356 72.1691C4.59356 72.1691 4.61172 72.2599 4.62987 72.3143Z" fill="var(--fill-0, #AB1B31)"/>
<path id="Vector_20" d="M4.59358 72.1691C4.55728 72.0058 4.53914 71.8969 4.53914 71.8425C4.53914 71.8788 4.55728 71.9877 4.59358 72.1691Z" fill="var(--fill-0, #AB1B31)"/>
<path id="Vector_21" d="M4.64834 72.3518V72.3143C4.64834 72.3143 4.62957 72.3518 4.64834 72.3518Z" fill="var(--fill-0, #AB1B31)"/>
<path id="Vector_22" d="M4.88393 73.9295C4.70246 73.748 4.44838 73.3487 4.43024 73.8387C4.61172 73.9476 4.61172 73.6754 4.88393 73.9295Z" fill="var(--fill-0, #AB1B31)"/>
<path id="Vector_23" d="M4.44842 72.5866L4.50286 72.9859C4.50286 72.9859 4.61174 72.877 4.68433 72.9677L4.44842 72.5866Z" fill="var(--fill-0, #AB1B31)"/>
<path id="Vector_24" d="M4.33951 72.4051L4.44841 72.5866L4.43026 72.4414L4.33951 72.4051Z" fill="var(--fill-0, #AB1B31)"/>
<path id="Vector_25" d="M4.35767 70.427C4.24878 70.2636 4.21249 70.0822 4.17619 69.8644C4.17619 70.1003 4.17619 70.3362 4.21248 70.5721C4.28508 70.5903 4.39397 70.681 4.35767 70.427Z" fill="var(--fill-0, #AB1B31)"/>
<path id="Vector_26" d="M4.43081 71.2811V71.2436C4.43081 71.2436 4.39327 71.2999 4.43081 71.2811Z" fill="var(--fill-0, #AB1B31)"/>
<path id="Vector_27" d="M4.01408 67.7592L3.97655 67.7968H4.01408V67.7592Z" fill="var(--fill-0, #AB1B31)"/>
<path id="Vector_28" d="M4.17619 70.6266C4.17619 70.8081 4.23063 70.8988 4.30322 70.9895C4.26693 70.8625 4.23063 70.7355 4.21248 70.5903C4.17618 70.5903 4.15804 70.5903 4.17619 70.6266Z" fill="var(--fill-0, #AB1B31)"/>
<path id="Vector_29" d="M4.28507 69.1566C4.24877 69.2473 4.23062 69.3562 4.21247 69.4651C4.26692 69.3744 4.33951 69.1929 4.28507 69.1566Z" fill="var(--fill-0, #AB1B31)"/>
<path id="Vector_30" d="M4.46653 71.1895V71.2079C4.50327 71.1528 4.46653 71.1528 4.46653 71.1895Z" fill="var(--fill-0, #AB1B31)"/>
<path id="Vector_31" d="M4.46654 71.1892C4.46654 71.1892 4.35766 71.044 4.32137 70.9896C4.35766 71.0985 4.39395 71.1892 4.43025 71.2618C4.43025 71.2437 4.44839 71.2074 4.46654 71.1892Z" fill="var(--fill-0, #AB1B31)"/>
<path id="Vector_32" d="M2.76066 67.1059C2.94214 67.1422 3.12361 67.614 2.92399 68.0314C3.06917 68.4307 3.64991 68.1403 3.97657 67.7955C3.90398 67.7955 3.83138 67.7955 3.70435 67.3781C3.61361 67.5233 3.48657 68.2855 3.32324 67.9407C3.21436 67.3963 3.37769 67.487 3.46843 67.2329C3.23251 67.4689 3.14177 66.5433 2.8151 66.6522C2.8514 66.8155 2.86954 66.9789 2.92399 67.1422C2.86954 67.1422 2.79695 66.9789 2.74251 67.1059H2.76066Z" fill="var(--fill-0, #AB1B31)"/>
<path id="Vector_33" d="M3.9947 68.5577L4.03099 68.7211C4.04914 68.5396 4.10358 68.3944 4.23062 68.1403C4.13988 67.8681 4.06728 67.8137 4.01284 67.7955C4.01284 68.0677 4.01284 68.34 4.01284 68.6122L3.97655 68.5577H3.9947Z" fill="var(--fill-0, #AB1B31)"/>
<path id="Vector_34" d="M4.08543 69.447C3.86766 69.3381 3.75877 68.9388 3.57729 69.211C3.63174 69.701 3.77692 69.5377 3.88581 69.8099C3.74062 69.0296 4.01285 70.0277 4.0673 69.447C4.12174 69.5922 4.13988 69.7373 4.17618 69.8644C4.17618 69.7192 4.19432 69.5922 4.21247 69.447V69.4651C4.21247 69.4651 4.17618 69.5196 4.19433 69.4651C4.19433 69.4651 4.13989 69.4288 4.12174 69.4288C4.12174 69.1929 4.17618 69.3925 4.19433 69.4651H4.23062C4.15803 69.211 4.12174 68.957 4.0673 68.7029C4.0673 68.8662 4.06729 69.084 4.12174 69.447H4.08543Z" fill="var(--fill-0, #AB1B31)"/>
<path id="Vector_35" d="M3.90396 73.5484C3.90396 73.5484 3.92212 73.5121 3.94027 73.5121C3.90397 73.4758 3.88582 73.4577 3.90396 73.5484Z" fill="var(--fill-0, #AB1B31)"/>
<path id="Vector_36" d="M3.92209 73.2035C3.92209 73.2035 4.04912 73.2761 4.08541 73.4576C4.08541 73.6391 3.99468 73.4939 3.94024 73.5121C4.03098 73.6028 4.19431 73.8569 4.17616 73.4758L4.13985 73.4213C4.10356 73.0946 4.24874 72.6409 4.28504 72.6772C4.13986 72.8043 4.03098 72.9132 3.92209 73.1854V73.2035Z" fill="var(--fill-0, #AB1B31)"/>
<path id="Vector_37" d="M3.86768 71.2981L3.66805 70.6629L3.55915 71.0259L3.6499 70.9896C3.66804 71.3707 3.77694 71.2618 3.86768 71.2981Z" fill="var(--fill-0, #AB1B31)"/>
<path id="Vector_38" d="M4.12174 67.6866L4.32137 67.7592L4.03099 67.3962L4.12174 67.6866Z" fill="var(--fill-0, #AB1B31)"/>
<path id="Vector_39" d="M4.08542 66.8519L4.26691 66.8881L4.15801 66.6522L4.08542 66.8519Z" fill="var(--fill-0, #AB1B31)"/>
<path id="Vector_40" d="M39.4375 57.8142L39.5827 57.9775C39.5827 57.9775 39.4738 57.8505 39.4375 57.8142Z" fill="var(--fill-0, #AB1B31)"/>
<path id="Vector_41" d="M38.6753 56.4894H38.5846C38.5846 56.4894 38.7116 56.5439 38.6753 56.4894Z" fill="var(--fill-0, #AB1B31)"/>
<path id="Vector_42" d="M14.7564 50.8635C15.0831 50.9179 15.446 51.045 15.3553 50.8635L15.2101 50.7183C15.0468 50.8272 14.9016 50.8635 14.7745 50.8635H14.7564Z" fill="var(--fill-0, #AB1B31)"/>
<path id="Vector_43" d="M28.821 49.5569L28.7666 49.4661C28.6758 49.5024 28.5851 49.5387 28.5125 49.575C28.6032 49.575 28.7121 49.5569 28.821 49.5569Z" fill="var(--fill-0, #AB1B31)"/>
<path id="Vector_44" d="M29.311 48.8855L29.6195 49.1577C29.6195 49.1577 29.4562 48.9944 29.311 48.8855Z" fill="var(--fill-0, #AB1B31)"/>
<path id="Vector_45" d="M41.9601 65.7448L42.1779 65.9807C42.1597 65.5815 42.069 65.763 41.9601 65.7448Z" fill="var(--fill-0, #AB1B31)"/>
<path id="Vector_46" d="M6.04543 58.6309C6.22691 58.4676 6.35395 58.3224 6.44469 58.1772C6.20877 58.3587 5.93654 58.4857 6.04543 58.6309Z" fill="var(--fill-0, #AB1B31)"/>
<path id="Vector_47" d="M37.3324 58.3223C37.3324 58.3223 37.4776 58.4312 37.5139 58.3949C37.4231 58.3041 37.3505 58.2678 37.3324 58.3223Z" fill="var(--fill-0, #AB1B31)"/>
<path id="Vector_48" d="M6.78951 57.5964C6.78951 57.5964 6.71691 57.6509 6.68062 57.6872C6.62617 57.8505 6.55359 58.0138 6.4447 58.1953C6.62618 58.0501 6.78951 57.8868 6.78951 57.6146V57.5964Z" fill="var(--fill-0, #AB1B31)"/>
<path id="Vector_49" d="M24.5018 87.1774C24.5018 87.1774 24.4655 87.1774 24.4292 87.1774C24.4292 87.1956 24.4474 87.1956 24.5018 87.1774Z" fill="var(--fill-0, #AB1B31)"/>
<path id="Vector_50" d="M16.3171 84.5823C16.3171 84.5823 16.5168 84.6186 16.6438 84.6549C16.5894 84.6186 16.4986 84.6005 16.3171 84.5823Z" fill="var(--fill-0, #AB1B31)"/>
<path id="Vector_51" d="M4.52101 63.5307C4.52101 63.567 4.50286 63.7122 4.52101 63.5307Z" fill="var(--fill-0, #AB1B31)"/>
<path id="Vector_52" d="M3.59544 64.2567C3.59544 64.2567 3.55914 64.1841 3.5047 64.166C3.541 64.1841 3.5773 64.2204 3.59544 64.2567Z" fill="var(--fill-0, #AB1B31)"/>
<g id="Vector_53">
</g>
<path id="Vector_54" d="M4.37581 63.7666C4.37581 63.7666 4.44839 63.6396 4.46654 63.5489C4.44839 63.5851 4.41211 63.6396 4.37581 63.7666Z" fill="var(--fill-0, #AB1B31)"/>
<path id="Vector_55" d="M4.48468 63.7486C4.48468 63.7486 4.44838 63.8574 4.43024 63.8937C4.46653 63.9119 4.48468 63.8937 4.48468 63.7486Z" fill="var(--fill-0, #AB1B31)"/>
<path id="Vector_56" d="M4.53913 63.2767C4.53913 63.3675 4.50283 63.4582 4.46653 63.5489C4.48468 63.5126 4.50284 63.5126 4.50284 63.5126C4.50284 63.4582 4.50283 63.3856 4.53913 63.2767Z" fill="var(--fill-0, #AB1B31)"/>
<path id="Vector_57" d="M37.6228 78.7386C37.6228 78.7386 37.6046 78.7386 37.5865 78.7568C37.5502 78.9746 37.5865 78.8838 37.6228 78.7386Z" fill="var(--fill-0, #AB1B31)"/>
<path id="Vector_58" d="M18.8584 47.5969L18.8397 47.6157H18.8772L18.8584 47.5969Z" fill="var(--fill-0, #AB1B31)"/>
<path id="Vector_59" d="M19.5475 47.361C19.2753 47.6514 19.1119 47.6514 18.876 47.6332L19.1845 48.1595L19.5475 47.361Z" fill="var(--fill-0, #AB1B31)"/>
<path id="Vector_60" d="M40.9075 61.1533V60.6271C41.3793 61.117 41.4338 61.5707 41.5245 61.0445C40.9438 61.1533 40.7986 59.1752 40.1816 59.3749V59.0119C40.1816 59.0119 40.236 59.1026 40.2723 59.1934C40.2905 58.4675 39.6734 58.9393 39.3831 58.1771C39.2923 57.9049 39.2923 57.6871 39.4375 57.8141C39.3105 57.6508 39.1472 57.4875 38.9838 57.3241C38.8931 57.1608 39.0201 57.1427 39.0927 57.3241L38.5483 56.5075H38.5664C38.4031 56.4349 38.1127 56.2716 37.9675 56.1808C37.895 55.9268 38.0946 56.2534 38.1127 56.1445L37.6953 55.7997C37.6953 55.5275 38.0764 55.7997 38.2761 56.1264C38.4757 55.3642 37.9312 55.8179 37.532 54.7653L37.9131 55.1282C37.9857 54.6564 37.6409 54.4205 37.4231 53.8034C37.4231 53.9849 37.7316 55.0738 37.2416 54.6927C37.169 54.5294 37.0601 54.3479 36.7516 54.1846C36.915 54.0394 36.6609 53.8397 36.3887 53.5675L36.6246 53.386C36.2798 53.132 36.189 53.259 35.935 53.1683C35.6265 52.8235 35.6991 52.6057 35.7535 52.3879C35.2454 51.8253 35.8805 53.0049 35.2091 52.4424C34.828 51.9342 34.3924 51.7527 33.7209 51.4261C33.4306 51.0994 33.8843 51.3353 33.8117 51.172L33.358 51.1357C33.358 51.1357 33.358 51.045 33.3761 51.0087C33.0676 50.8998 33.1765 51.2264 32.7409 51.0087C32.4687 51.1902 32.1239 50.065 31.398 50.0468C31.3073 49.9016 31.5432 49.9198 31.5613 49.8109C30.6902 49.6294 30.8173 49.6113 30.0551 49.5931L29.5832 49.1757C29.8917 49.5568 29.2747 49.5568 28.7666 49.575C28.8573 49.7383 28.948 49.8654 29.0025 49.9379C28.7484 49.8835 28.5125 49.8291 28.2584 49.8109C28.1858 49.7383 28.2947 49.6657 28.458 49.5931C28.4036 49.5931 28.3492 49.5931 28.3129 49.6113C28.0951 49.4298 28.2766 49.3028 28.5306 49.2302L28.7303 49.4842C28.9662 49.3935 29.2021 49.2846 29.2384 49.1031C29.184 49.1031 29.0751 49.1031 28.9843 49.0668C29.0569 49.0487 29.0932 49.0124 29.0751 48.9761C29.0751 48.9398 28.9662 48.9761 28.821 48.9761L28.7666 48.6132L28.6758 48.722L27.7684 48.1957C26.9518 48.3046 26.244 48.5769 25.1188 48.5224C25.4273 48.3409 25.2459 48.1595 25.3185 47.8691C25.5725 48.1957 26.2259 47.9054 26.8066 48.1232C26.5162 48.0143 26.607 47.9054 26.6977 47.8691C26.3166 47.8691 25.9536 47.8509 25.5907 47.8872C25.6633 47.6695 25.3911 47.6876 25.137 47.5424C25.264 48.0324 24.3022 47.6876 23.8485 47.8146C23.8485 47.6695 23.9574 47.5061 24.4837 47.615C23.9392 47.1976 23.667 48.0687 23.1226 47.7239C23.2496 47.7239 23.3222 47.7602 23.3766 47.6876C23.0681 47.7783 22.3422 47.6513 22.5055 47.5243H22.6326C21.7615 47.4154 20.0011 47.5787 19.9104 47.9961C19.9104 47.9417 19.983 47.5243 20.0193 47.4517C19.5474 47.9054 19.1119 48.4498 18.6945 48.9398C18.7671 48.595 18.1319 47.8872 18.8034 47.5969C18.5856 47.5969 18.3315 47.5606 17.9141 47.7602C18.0593 47.7602 18.3497 48.1776 18.1682 48.232C17.5875 47.978 17.7871 48.1232 17.0793 47.9598C17.2971 47.978 17.1882 48.5406 16.8797 48.595C16.916 48.5043 16.7164 48.105 16.8252 48.0324C16.5893 48.2502 16.3897 48.5043 16.1719 48.7402C16.3353 48.595 16.0812 48.3228 15.8634 48.232C15.9723 48.3046 15.1738 48.4317 14.9742 48.5587C15.1012 48.5587 15.2282 48.5587 15.3553 48.5587C14.4479 48.7946 14.7564 49.5568 13.9034 49.8654C13.9579 49.7383 13.9034 49.1576 13.4316 49.3028C13.3408 49.6476 13.1049 50.8272 12.5605 51.3898L12.3609 51.3353L11.9435 51.7709C12.0342 51.2627 12.5423 49.9924 12.9779 49.448C12.6149 49.5024 12.8146 49.3391 12.3427 49.575C12.1068 49.5387 12.506 49.2665 12.6512 49.1757C12.252 49.3209 11.8709 49.4843 11.5079 49.6839C11.7075 49.9198 10.8364 50.4279 11.0179 50.6276L12.0161 49.6839C12.1975 49.9379 11.762 50.809 11.0361 51.2264C10.8001 51.2446 10.8727 50.682 10.8001 50.6094C10.7639 50.7546 10.2376 51.2446 10.1287 51.2264L10.3464 50.8816C9.8746 51.0813 9.92905 51.6438 9.31202 51.789C9.14869 51.8979 8.60424 51.8616 8.67683 52.025C9.16683 52.0794 9.8746 52.8779 9.89275 53.2046C9.82016 53.2046 8.93091 53.5857 8.6587 53.622C8.24129 53.6401 8.56796 52.8053 8.205 52.8235C8.25944 52.8961 8.20499 53.0957 8.16869 53.1683C7.96907 53.259 8.05981 52.9142 7.7513 53.259C7.91463 53.5312 7.06167 53.876 7.78759 53.5857C7.53352 53.9486 7.42463 53.876 7.07982 54.2753C7.33389 54.2753 7.27945 55.0738 7.07982 55.4368C7.02538 55.3642 6.89835 55.3823 6.82575 55.3823C6.29947 56.0901 5.84576 56.3442 5.44651 57.0701C5.33762 57.0882 5.06541 57.3967 5.02912 57.179C5.02912 57.306 5.04725 57.4512 4.92022 57.6871C4.43023 57.9956 5.1743 57.1608 4.70245 57.3423C4.84764 57.4693 4.55727 58.0319 4.52098 58.4312C4.7932 58.4312 4.93837 57.7052 5.04725 57.3423C5.39206 57.5419 5.37392 58.2497 5.21059 59.0845C5.02911 59.7197 4.86578 59.2478 4.86578 59.3749C4.28505 60.5 5.11985 60.5908 4.48467 61.4619C4.13986 61.7885 4.01283 61.3348 3.83135 61.3711C3.90394 60.8085 4.24876 60.6271 4.37579 60.2641L4.12172 60.6633C4.12172 60.4637 4.17616 60.1008 4.3032 59.9374C4.13987 60.0645 3.95839 60.5726 3.74062 61.1533C3.57729 61.7522 3.37765 62.4237 3.17802 62.8955C3.23247 63.0952 3.25062 63.4037 3.37765 63.2766V62.9681C3.64987 62.7322 3.55913 63.5852 3.72247 63.2222C3.79506 63.6578 3.8858 64.1296 3.72247 64.674L3.43209 64.7466C3.43209 64.7466 3.63172 64.3837 3.57728 64.2203C3.66802 64.4744 3.10543 65.0551 3.45024 65.3637L3.68616 64.9825C3.7769 65.4 4.03098 65.9081 3.94025 66.4162C4.23061 66.1985 3.92209 66.2892 4.24876 65.9625C3.81321 66.2347 4.37579 64.7103 3.90394 65.164C4.32134 64.8374 4.10357 64.547 4.50283 64.1296C4.41209 64.1296 4.30319 64.2566 4.41208 63.8755C4.39393 63.8574 4.35764 63.8029 4.33949 63.7666C4.33949 63.7485 4.33949 63.7485 4.33949 63.7666C4.28504 63.8574 4.21246 63.93 4.15801 63.9481C3.99468 63.7122 4.10357 63.0589 4.04913 62.8048C4.15802 62.5689 4.12172 62.9318 4.24876 62.8048L4.17616 62.4418C4.37579 62.4418 4.66616 61.8974 4.64801 62.4781L4.79318 61.9881C4.97466 61.7159 5.15615 61.353 5.15615 61.0807C5.28319 60.863 5.15615 60.4274 5.22874 60.6815C5.28319 60.4093 5.31948 60.1371 5.41022 59.883H5.46466C5.64614 59.5382 5.73689 59.1389 5.88207 58.7215C6.0454 58.3223 6.28131 57.9412 6.68057 57.6508C6.75316 57.3786 6.88019 57.1245 7.18871 56.7979L7.38833 56.8341C7.55167 56.5256 8.11425 56.1082 8.0961 55.8905C8.69498 55.9086 9.27571 54.729 9.78386 54.3842L9.63868 54.2027C9.9472 53.9123 10.2376 53.6401 10.5642 53.2227L10.419 53.0775C10.655 52.642 11.4535 52.4968 12.0342 52.0794C12.0342 52.1701 11.8709 52.2427 11.7438 52.279C12.6875 52.2064 13.1231 51.045 13.9942 51.0268C14.1393 50.8816 14.2664 50.8272 14.4116 50.8272C14.4116 50.8272 14.3753 50.8272 14.3753 50.8635C14.3934 50.8635 14.4297 50.8453 14.4479 50.8272C14.5386 50.8272 14.6475 50.8272 14.7382 50.8272C14.6475 50.8272 14.5568 50.809 14.4842 50.8272C14.6294 50.7727 14.829 50.6639 15.0105 50.5368L15.1738 50.7002C15.1738 50.7002 15.1919 50.7002 15.2101 50.682C15.446 50.682 15.3371 50.5187 15.1738 50.4098C15.2645 50.3372 15.3553 50.2646 15.4097 50.1739C15.6819 50.4279 15.936 49.8654 16.2808 50.1557C16.3715 49.9379 17.3152 49.6839 17.3334 49.3028C17.3515 49.3572 17.4241 49.3572 17.2971 49.3935C17.5512 49.3935 17.8052 49.3572 18.0049 49.212L18.1682 49.4661C18.3134 49.3028 18.4767 49.1576 18.64 48.9943C19.003 49.1031 19.1482 49.1939 18.8578 49.448C19.6019 49.0124 19.4748 49.1939 20.11 48.8309V49.0124C20.3278 48.9943 20.7089 48.722 20.8722 48.8491C21.4167 49.1213 23.5944 48.8491 24.9011 49.4661C24.7377 48.9035 25.4818 49.7928 25.627 49.4117C25.6814 49.5568 25.8447 49.6657 25.627 49.7202C26.3347 49.7746 26.5888 50.1557 27.1514 49.9742C27.1877 50.1194 26.9518 50.1013 27.0062 50.192C27.0607 50.192 27.2421 50.1557 27.2966 50.2646C27.3329 50.3553 27.1695 50.3372 27.0425 50.3553C27.714 50.5731 27.9136 50.2283 28.0769 49.9016C28.3673 50.1739 28.5488 50.2283 28.8754 50.1194C28.948 50.2828 29.0932 50.4824 28.6577 50.3372C28.8936 50.4461 30.0006 51.1176 30.1458 50.8998C30.1821 51.0087 30.4543 51.0813 30.5269 51.0813C31.035 51.3535 31.035 51.4442 31.5432 51.6983L31.4343 51.5713C31.8154 51.4079 31.888 51.7346 32.2691 51.9705H32.2328C32.9224 52.8235 32.7047 52.1338 33.3035 53.0231L33.3943 52.8235C33.7754 52.5331 33.9387 53.6038 34.465 53.9123L34.3924 53.6764C34.7554 53.7853 34.6102 54.7653 34.7735 55.0375C34.7735 55.1101 34.6465 55.0012 34.5739 54.9468C34.9368 55.7453 34.8461 54.8379 35.3179 55.2553C35.2816 55.4368 34.9187 55.4005 35.1909 55.7271C35.1909 55.963 36.3524 56.3442 36.425 57.0156C36.4431 56.8523 36.4794 56.6708 36.7153 56.8704C37.0239 57.2152 36.9876 58.1226 37.5138 58.286C37.5138 58.3586 37.5138 58.3767 37.4775 58.3949C37.7316 58.6308 38.1309 59.3204 38.4031 59.4111C37.8768 59.9919 39.5646 61.2804 38.8931 61.5163C39.0201 61.843 39.1472 62.1696 39.2379 62.5144H39.1653C39.2923 63.1678 39.5101 63.3492 39.7097 63.567C39.7097 63.7303 39.6009 63.6396 39.5646 63.6215C39.619 64.6196 39.6371 64.6922 40.0908 65.4907L39.8731 65.5996C40.0183 65.8174 39.6372 67.0333 39.8368 67.9951C39.8186 67.9951 39.7642 67.9588 39.746 67.8862C40.0001 69.0114 38.8749 70.3543 39.5827 70.8806C39.619 71.1347 39.6009 71.3706 39.619 71.6247C39.9094 70.7173 39.9275 71.8425 40.1634 71.4976C40.109 71.8787 39.6916 72.3869 39.7642 71.9332L39.8186 71.8787C39.4557 71.6065 39.3649 72.9858 39.0746 72.8587C38.5301 74.6191 37.4957 76.1253 36.5339 77.5046H36.915L36.552 78.0127C36.4068 78.1035 36.2253 78.0309 36.4794 77.6861C36.2072 77.7587 36.189 78.3575 36.2435 78.412C35.6265 78.9927 36.1346 77.922 35.9713 78.1216L35.7716 78.412L35.8442 78.3757C35.7716 78.6842 35.8805 78.7931 35.5357 79.1742C35.2635 79.3738 35.2635 79.1742 35.1728 79.2468C35.1728 79.2468 35.1183 79.2468 35.0276 79.392L34.5013 79.9183L34.9005 79.882C34.7735 80.2268 34.3924 80.372 34.8642 80.3538C34.1928 80.4083 32.6502 82.1504 32.2691 82.1686C31.9969 82.6041 31.6158 82.8582 31.0895 83.1304C31.2347 83.0941 31.4706 83.3119 31.0169 83.5478C30.8899 82.949 30.0732 83.7475 29.5288 83.5478C29.9825 83.6749 28.2947 84.2012 28.9662 84.3463C28.5669 84.4552 28.8573 84.1467 28.5125 84.1286C27.6958 84.7275 26.4436 84.7093 25.2822 84.9997C25.2822 85.0904 25.4999 85.163 25.2822 85.3263C25.0462 85.2356 24.8103 85.1449 24.5925 85.036C24.3748 85.1086 24.4292 85.526 23.9755 85.29C24.0481 85.3445 24.157 85.4352 23.9755 85.4897C21.6163 85.3989 19.003 85.8526 16.7889 84.546C17.0612 84.7637 16.8434 84.7456 16.6075 84.673C16.7527 84.7456 16.553 84.8545 16.553 84.9815C16.2445 84.8 15.9541 84.6186 15.6638 84.4189C15.3916 84.6549 14.6294 84.0923 14.4297 84.31L14.7564 84.3826C14.2301 84.546 15.0831 85.29 14.8834 85.6893C15.4642 85.4715 16.0086 86.6511 16.9704 86.2882C17.1338 86.4152 16.7889 86.3971 16.8615 86.5059C17.1156 86.3789 17.3697 86.3971 17.8234 86.5604L17.7689 86.5967C19.0937 86.7963 19.6382 87.0322 21.1626 87.2319L21.0537 87.0141C21.3804 87.0504 21.453 87.123 21.5981 87.1774C21.9792 86.8508 20.6907 87.1411 21.0356 86.7963C21.453 87.2682 23.304 86.7963 23.6307 87.25C24.1388 87.1956 23.4674 87.0141 23.9574 86.9596L24.1025 87.0685L24.2114 86.8871C24.5381 86.8871 24.7377 87.0141 24.7559 87.123C24.6651 87.123 24.5381 87.1774 24.4474 87.1956C24.9011 87.3226 25.6451 86.9596 25.8084 86.9778H25.3185C26.6614 86.633 28.3492 86.3245 29.4743 85.5441L29.3473 85.4897C30.2002 84.9452 30.1277 85.2537 31.0895 84.6912V84.7274C31.2165 84.546 31.4524 84.3463 31.7065 84.2012C31.525 84.4552 32.2691 84.1286 32.0332 84.4371C32.868 83.693 32.4324 84.0197 32.7954 83.2938L33.0313 83.3301C33.1402 83.0578 33.1221 82.9853 33.5213 82.6404C33.2672 83.0397 33.9569 82.6404 33.6665 83.0941C34.8098 82.6404 34.7554 81.7149 35.4813 81.7331C35.5357 81.0253 34.5739 82.2412 34.7191 81.9508C34.4469 82.0053 34.7917 81.3882 35.082 81.1886C35.3542 80.9527 35.9531 81.1886 36.5702 80.4627C36.4976 80.5353 36.5339 80.5534 36.4613 80.626C36.7879 80.4445 36.8061 80.009 37.2053 79.7912C37.1327 79.4283 37.5683 79.3557 37.3142 79.0835L36.8605 79.8094C37.0783 79.3557 37.042 78.7749 37.6409 78.2487C37.659 78.3394 37.6046 78.5935 37.5683 78.7568C37.7861 78.6298 37.7679 78.3575 37.9857 78.2124C38.2398 78.4664 37.4775 79.1198 37.3505 79.6823C37.6409 79.5735 37.7498 78.7386 37.895 79.1742C37.6953 78.5753 38.4938 78.4483 38.4938 77.7042L38.6572 77.8494C38.6753 77.7405 38.6935 77.5046 38.8023 77.3594L38.8749 77.795C38.9294 77.2324 39.5827 77.0327 39.6734 76.5246C39.2016 77.4683 39.3468 76.6153 39.002 76.9239C39.3105 75.6535 39.8731 76.5428 40.3631 75.1635C40.3086 75.3631 39.9638 75.7987 39.982 75.472C40.1271 75.2361 40.3449 74.9276 40.5082 74.8187C40.8349 73.9113 40.2542 74.8731 40.2723 74.4557C40.6534 74.2561 40.3268 73.9839 40.3812 73.5665L40.5808 73.6391C41.0527 72.641 40.2542 73.2398 40.6716 72.3506L40.8712 72.8224L40.9256 72.3143L41.1434 72.4776C41.089 71.8969 41.216 71.7517 41.3612 71.2254C41.1797 71.3162 40.9801 71.0802 41.0527 70.6084C41.2342 70.318 41.2342 70.8262 41.3068 70.1547C41.4156 70.318 41.5608 70.5177 41.3068 70.7717C41.3793 70.808 41.4156 70.9532 41.4701 70.9895C41.6697 70.6628 41.6697 70.1184 41.6879 69.8643C41.6697 69.9551 41.6516 70.064 41.6153 70.1184L41.4156 69.1021C41.5064 68.9569 41.5608 69.084 41.6153 69.211C41.6153 69.0114 41.5245 68.8662 41.5245 68.5758C41.706 68.6666 41.8875 68.6484 41.9238 69.084C41.9056 68.7573 41.8512 68.4306 41.7786 68.1221C41.8512 68.0677 42.0145 67.6321 42.069 67.7592C42.2141 67.2147 41.706 66.4707 41.8149 65.7629C41.7786 65.7266 41.7423 65.654 41.706 65.5088C41.6697 64.8555 41.833 64.2385 41.4338 63.5126L41.6697 63.0044C41.4701 62.4237 41.3975 63.6759 41.0708 62.7141C40.7986 62.0607 41.2705 62.3874 41.2886 62.1333C41.0527 61.8248 40.5627 61.3348 40.599 60.6271C40.726 60.8085 40.7442 60.99 40.8168 61.1715L40.9075 61.1533ZM37.2779 54.6927C37.405 54.7834 37.6953 54.9105 37.659 55.0738C37.3505 55.0919 37.3687 54.9286 37.2779 54.6927ZM27.9681 48.8128C28.0951 48.7765 28.2403 48.8672 28.3673 48.9943C28.2403 48.9761 28.0951 48.9035 27.9681 48.8128ZM4.79318 61.607C4.97466 61.353 4.90207 61.4256 4.79318 61.607ZM4.53912 62.1696C4.53912 62.1696 4.57541 62.2422 4.61171 62.2241C4.57541 62.1696 4.61172 62.0426 4.64801 61.8974C4.57542 61.9156 4.52098 61.9881 4.52098 62.1696H4.53912ZM35.2272 79.3557L35.3542 79.3012C35.2272 79.5372 35.2272 79.4464 35.2272 79.3557Z" fill="var(--fill-0, #AB1B31)"/>
<path id="Vector_61" d="M29.2566 48.9762C29.2566 48.9762 29.2566 49.0669 29.2566 49.1032C29.3292 49.1032 29.3473 49.0488 29.2566 48.9762Z" fill="var(--fill-0, #AB1B31)"/>
<path id="Vector_62" d="M41.9238 65.7085V65.7273C41.9238 65.7273 41.9426 65.7273 41.9613 65.746L41.9238 65.7085Z" fill="var(--fill-0, #AB1B31)"/>
<path id="Vector_63" d="M7.95095 52.9324C8.07799 52.8598 8.15057 52.8417 8.22316 52.8235C8.18686 52.7873 8.11428 52.7873 7.95095 52.9324Z" fill="var(--fill-0, #AB1B31)"/>
<path id="Vector_64" d="M4.35768 65.3456V64.9645C4.33953 65.1459 4.28509 65.2004 4.23064 65.2911C4.28509 65.2911 4.35768 65.2185 4.35768 65.3456Z" fill="var(--fill-0, #AB1B31)"/>
<path id="Vector_65" d="M2.96028 68.7392C2.96028 68.7392 2.96027 68.8663 2.99657 68.9207H3.10545C3.0873 68.6485 2.97843 68.467 2.96028 68.7392Z" fill="var(--fill-0, #AB1B31)"/>
<path id="Vector_66" d="M3.59543 65.6359C3.41395 65.6359 3.4684 65.9081 3.48655 66.1803V66.1259C3.74062 66.2166 3.66802 65.9263 3.59543 65.6178V65.6359Z" fill="var(--fill-0, #AB1B31)"/>
<path id="Vector_67" d="M3.48657 66.2529C3.48657 66.2529 3.48657 66.4344 3.48657 66.507C3.59546 66.5432 3.50472 66.3981 3.48657 66.2529Z" fill="var(--fill-0, #AB1B31)"/>
<path id="Vector_68" d="M4.46656 62.9319C4.39397 63.0407 4.68433 63.0589 4.59359 63.1133C4.77507 63.2948 4.521 62.2422 4.46656 62.9319Z" fill="var(--fill-0, #AB1B31)"/>
<path id="Vector_69" d="M2.97843 65.8175L3.21437 65.7267L3.03289 65.5634L2.97843 65.8175Z" fill="var(--fill-0, #AB1B31)"/>
<path id="Vector_70" d="M3.41399 63.6215L3.2688 64.0571C3.2688 64.0571 3.32324 64.1115 3.32324 64.1841C3.37769 63.9119 3.48658 63.6215 3.41399 63.6215Z" fill="var(--fill-0, #AB1B31)"/>
<path id="Vector_71" d="M3.32322 64.1841C3.28692 64.3293 3.28692 64.4563 3.32322 64.5471C3.32322 64.4745 3.32322 64.293 3.32322 64.1841Z" fill="var(--fill-0, #AB1B31)"/>
<path id="Vector_72" d="M2.96028 65.2004L3.01472 65.0734L3.06916 64.7467L2.96028 65.2004Z" fill="var(--fill-0, #AB1B31)"/>
<path id="Vector_73" d="M4.90209 59.0301L5.04726 58.5582C5.04726 58.5582 4.90209 58.5764 4.84765 58.7578C4.84765 58.8849 4.7932 59.0664 4.90209 59.0301Z" fill="var(--fill-0, #AB1B31)"/>
<path id="Vector_74" d="M3.74065 60.1915C3.83139 60.0826 3.88583 60.0826 3.97657 60.0463L3.7225 59.9375V60.2097L3.74065 60.1915Z" fill="var(--fill-0, #AB1B31)"/>
<path id="Vector_75" d="M4.24878 58.7942C4.24878 58.7942 4.35767 58.0138 4.10359 58.6127C4.15804 58.6853 3.99471 59.1935 4.24878 58.7942Z" fill="var(--fill-0, #AB1B31)"/>
<path id="Vector_76" d="M9.05799 52.9687L8.94909 53.0595L9.27576 53.3861L9.05799 52.9687Z" fill="var(--fill-0, #AB1B31)"/>
<path id="Vector_77" d="M14.2846 48.5225C13.6675 48.6495 14.2483 48.8491 13.6857 48.9217C13.5949 49.0669 14.1575 48.8491 14.0486 48.9943C14.3572 48.7584 14.5568 48.7403 14.2846 48.5225Z" fill="var(--fill-0, #AB1B31)"/>
<path id="Vector_78" d="M14.0486 48.9943C14.0486 48.9943 13.9579 49.0851 13.9034 49.1214C13.9942 49.0488 14.0305 49.0125 14.0486 48.9943Z" fill="var(--fill-0, #AB1B31)"/>
<path id="Vector_79" d="M15.1375 83.9471L14.8472 83.7293L15.0105 83.9653L15.1375 83.9471Z" fill="var(--fill-0, #AB1B31)"/>
<path id="Vector_80" d="M14.3753 84.0198L14.4116 83.7112L14.1212 83.8746C14.1212 83.8746 14.3571 83.929 14.3753 84.0198Z" fill="var(--fill-0, #AB1B31)"/>
<path id="Vector_81" d="M37.0057 53.4587H36.9331C36.9331 53.5857 36.9694 53.6583 37.0964 53.8035L37.0057 53.4587Z" fill="var(--fill-0, #AB1B31)"/>
<path id="Vector_82" d="M39.9275 58.1227L39.8913 58.0501L39.7279 58.3223L39.9275 58.1227Z" fill="var(--fill-0, #AB1B31)"/>
<path id="Vector_83" d="M41.8512 62.3693C41.8149 62.1878 41.706 61.9701 41.6697 61.7886C41.8149 62.1878 41.5427 62.4964 41.8512 62.3693Z" fill="var(--fill-0, #AB1B31)"/>
</g>
<path id="Vector_84" d="M39.6371 60.9536C43.8474 60.3729 47.3681 63.6758 47.3136 67.1602C47.2773 70.2817 44.41 73.2398 40.6534 73.2942" stroke="var(--stroke-0, #AB1B31)" stroke-miterlimit="10"/>
</g>
</svg>
