<svg preserveAspectRatio="none" width="100%" height="100%" overflow="visible" style="display: block;" viewBox="0 0 299.979 622.177" fill="none" xmlns="http://www.w3.org/2000/svg">
<path id="Outline-Black" fill-rule="evenodd" clip-rule="evenodd" d="M53.7396 0H246.24C275.919 0 299.979 24.1129 299.979 53.8577V568.319C299.979 598.064 275.919 622.177 246.24 622.177H53.7396C24.06 622.177 0 598.064 0 568.319V53.8577C0 24.1129 24.06 0 53.7396 0ZM53.7396 9.64615C29.3758 9.64615 9.625 29.4403 9.625 53.8577V568.319C9.625 592.737 29.3758 612.531 53.7396 612.531H246.24C270.603 612.531 290.354 592.737 290.354 568.319V53.8577C290.354 29.4403 270.603 9.64615 246.24 9.64615H53.7396Z" fill="var(--fill-0, #0F172A)"/>
</svg>
