<svg preserveAspectRatio="none" width="100%" height="100%" overflow="visible" style="display: block;" viewBox="0 0 28 28" fill="none" xmlns="http://www.w3.org/2000/svg">
<g id="Icon">
<path id="Vector" d="M16.3298 4.66667C16.7508 4.66666 17.1638 4.78052 17.5253 4.99618C17.8868 5.21183 18.1832 5.52126 18.3832 5.89167L18.9502 6.94167C19.1501 7.31207 19.4465 7.6215 19.808 7.83716C20.1695 8.05281 20.5826 8.16667 21.0035 8.16667H23.3333C23.9522 8.16667 24.5457 8.4125 24.9833 8.85008C25.4208 9.28767 25.6667 9.88116 25.6667 10.5V21C25.6667 21.6188 25.4208 22.2123 24.9833 22.6499C24.5457 23.0875 23.9522 23.3333 23.3333 23.3333H4.66667C4.04783 23.3333 3.45434 23.0875 3.01675 22.6499C2.57917 22.2123 2.33333 21.6188 2.33333 21V10.5C2.33333 9.88116 2.57917 9.28767 3.01675 8.85008C3.45434 8.4125 4.04783 8.16667 4.66667 8.16667H6.9965C7.41699 8.16669 7.82967 8.05308 8.19091 7.83786C8.55215 7.62264 8.84851 7.3138 9.04867 6.944L9.61917 5.88933C9.81932 5.51953 10.1157 5.21069 10.4769 4.99547C10.8382 4.78025 11.2508 4.66664 11.6713 4.66667H16.3298Z" stroke="var(--stroke-0, white)" stroke-width="2.33333" stroke-linecap="round" stroke-linejoin="round"/>
<path id="Vector_2" d="M14 18.6667C15.933 18.6667 17.5 17.0997 17.5 15.1667C17.5 13.2337 15.933 11.6667 14 11.6667C12.067 11.6667 10.5 13.2337 10.5 15.1667C10.5 17.0997 12.067 18.6667 14 18.6667Z" stroke="var(--stroke-0, white)" stroke-width="2.33333" stroke-linecap="round" stroke-linejoin="round"/>
</g>
</svg>
