<svg preserveAspectRatio="none" width="100%" height="100%" overflow="visible" style="display: block;" viewBox="0 0 40 40" fill="none" xmlns="http://www.w3.org/2000/svg">
<g id="Icon">
<path id="Vector" d="M31.6667 5H8.33333C6.49238 5 5 6.49238 5 8.33333V31.6667C5 33.5076 6.49238 35 8.33333 35H31.6667C33.5076 35 35 33.5076 35 31.6667V8.33333C35 6.49238 33.5076 5 31.6667 5Z" stroke="var(--stroke-0, white)" stroke-width="3.33333" stroke-linecap="round" stroke-linejoin="round"/>
<path id="Vector_2" d="M15 18.3333C16.8409 18.3333 18.3333 16.8409 18.3333 15C18.3333 13.1591 16.8409 11.6667 15 11.6667C13.1591 11.6667 11.6667 13.1591 11.6667 15C11.6667 16.8409 13.1591 18.3333 15 18.3333Z" stroke="var(--stroke-0, white)" stroke-width="3.33333" stroke-linecap="round" stroke-linejoin="round"/>
<path id="Vector_3" d="M35 24.9999L29.8567 19.8566C29.2316 19.2317 28.3839 18.8806 27.5 18.8806C26.6161 18.8806 25.7684 19.2317 25.1433 19.8566L10 34.9999" stroke="var(--stroke-0, white)" stroke-width="3.33333" stroke-linecap="round" stroke-linejoin="round"/>
</g>
</svg>
