<svg preserveAspectRatio="none" width="100%" height="100%" overflow="visible" style="display: block;" viewBox="0 0 16 16" fill="none" xmlns="http://www.w3.org/2000/svg">
<g id="Icon">
<path id="Vector" d="M7.68335 1.52993C7.71257 1.4709 7.7577 1.42122 7.81365 1.38648C7.86961 1.35174 7.93416 1.33333 8.00002 1.33333C8.06588 1.33333 8.13043 1.35174 8.18638 1.38648C8.24234 1.42122 8.28747 1.4709 8.31669 1.52993L9.85669 4.64926C9.95814 4.85457 10.1079 5.0322 10.2931 5.1669C10.4783 5.3016 10.6934 5.38934 10.92 5.4226L14.364 5.9266C14.4293 5.93605 14.4906 5.96358 14.541 6.00606C14.5914 6.04855 14.629 6.10429 14.6494 6.167C14.6698 6.22971 14.6722 6.29687 14.6564 6.36089C14.6406 6.42491 14.6072 6.48323 14.56 6.52926L12.0694 8.9546C11.9051 9.11466 11.7822 9.31225 11.7112 9.53035C11.6403 9.74845 11.6234 9.98052 11.662 10.2066L12.25 13.6333C12.2615 13.6985 12.2545 13.7656 12.2297 13.8271C12.2049 13.8885 12.1633 13.9417 12.1097 13.9806C12.0561 14.0195 11.9927 14.0426 11.9266 14.0472C11.8605 14.0518 11.7945 14.0377 11.736 14.0066L8.65735 12.3879C8.4545 12.2814 8.22881 12.2258 7.99969 12.2258C7.77057 12.2258 7.54487 12.2814 7.34202 12.3879L4.26402 14.0066C4.20557 14.0375 4.13962 14.0515 4.07365 14.0468C4.00769 14.0421 3.94437 14.019 3.89088 13.9801C3.8374 13.9412 3.79591 13.8881 3.77112 13.8267C3.74634 13.7654 3.73926 13.6984 3.75069 13.6333L4.33802 10.2073C4.37682 9.98108 4.36001 9.74886 4.28904 9.53063C4.21808 9.31239 4.09509 9.1147 3.93069 8.9546L1.44002 6.52993C1.39242 6.48395 1.35868 6.42553 1.34266 6.36131C1.32664 6.2971 1.32898 6.22967 1.34941 6.16672C1.36983 6.10377 1.40753 6.04782 1.4582 6.00525C1.50888 5.96268 1.57049 5.93519 1.63602 5.92593L5.07935 5.4226C5.30619 5.3896 5.52161 5.30197 5.70708 5.16725C5.89254 5.03254 6.04249 4.85478 6.14402 4.64926L7.68335 1.52993Z" fill="var(--fill-0, #F4ED1E)" stroke="var(--stroke-0, #F4ED1E)" stroke-width="1.33333" stroke-linecap="round" stroke-linejoin="round"/>
</g>
</svg>
