<svg preserveAspectRatio="none" width="100%" height="100%" overflow="visible" style="display: block;" viewBox="0 0 20 20" fill="none" xmlns="http://www.w3.org/2000/svg">
<g id="Icon">
<path id="Vector" d="M9.60419 1.91251C9.64071 1.83873 9.69713 1.77662 9.76707 1.7332C9.83701 1.68978 9.9177 1.66677 10 1.66677C10.0824 1.66677 10.163 1.68978 10.233 1.7332C10.3029 1.77662 10.3593 1.83873 10.3959 1.91251L12.3209 5.81168C12.4477 6.06832 12.6349 6.29035 12.8664 6.45872C13.0979 6.6271 13.3668 6.73677 13.65 6.77835L17.955 7.40835C18.0366 7.42017 18.1132 7.45457 18.1763 7.50768C18.2393 7.56079 18.2862 7.63047 18.3117 7.70885C18.3372 7.78723 18.3403 7.87118 18.3205 7.95121C18.3008 8.03123 18.259 8.10414 18.2 8.16168L15.0867 11.1933C14.8814 11.3934 14.7278 11.6404 14.6391 11.913C14.5504 12.1857 14.5292 12.4758 14.5775 12.7583L15.3125 17.0417C15.3269 17.1232 15.3181 17.2071 15.2871 17.2839C15.2561 17.3607 15.2041 17.4272 15.1371 17.4758C15.0702 17.5245 14.9908 17.5533 14.9082 17.5591C14.8257 17.5648 14.7431 17.5473 14.67 17.5083L10.8217 15.485C10.5681 15.3519 10.286 15.2823 9.99961 15.2823C9.71321 15.2823 9.43109 15.3519 9.17752 15.485L5.33002 17.5083C5.25697 17.547 5.17452 17.5644 5.09207 17.5586C5.00961 17.5527 4.93046 17.5238 4.8636 17.4752C4.79675 17.4266 4.74489 17.3602 4.71391 17.2835C4.68292 17.2069 4.67407 17.1231 4.68836 17.0417L5.42252 12.7592C5.47102 12.4765 5.45001 12.1862 5.36131 11.9134C5.2726 11.6406 5.11887 11.3935 4.91336 11.1933L1.80002 8.16251C1.74052 8.10504 1.69835 8.03201 1.67833 7.95174C1.6583 7.87147 1.66122 7.78719 1.68676 7.70851C1.71229 7.62982 1.75941 7.55988 1.82276 7.50667C1.8861 7.45345 1.96311 7.4191 2.04502 7.40751L6.34919 6.77835C6.63274 6.7371 6.90202 6.62756 7.13384 6.45917C7.36567 6.29078 7.55311 6.06857 7.68002 5.81168L9.60419 1.91251Z" fill="var(--fill-0, #F4ED1E)"/>
</g>
</svg>
