<svg preserveAspectRatio="none" width="100%" height="100%" overflow="visible" style="display: block;" viewBox="0 0 16.6682 15.8934" fill="none" xmlns="http://www.w3.org/2000/svg">
<path id="Vector" d="M7.939 0.245745C7.97552 0.171962 8.03193 0.109855 8.10188 0.0664324C8.17182 0.0230097 8.25251 0 8.33483 0C8.41716 0 8.49785 0.0230097 8.56779 0.0664324C8.63773 0.109855 8.69415 0.171962 8.73067 0.245745L10.6557 4.14491C10.7825 4.40155 10.9697 4.62358 11.2012 4.79196C11.4327 4.96033 11.7016 5.07001 11.9848 5.11158L16.2898 5.74158C16.3714 5.7534 16.448 5.7878 16.5111 5.84091C16.5741 5.89402 16.621 5.9637 16.6465 6.04208C16.672 6.12047 16.6751 6.20442 16.6553 6.28444C16.6356 6.36447 16.5938 6.43737 16.5348 6.49491L13.4215 9.52658C13.2162 9.72666 13.0626 9.97365 12.9739 10.2463C12.8852 10.5189 12.8641 10.809 12.9123 11.0916L13.6473 15.3749C13.6617 15.4564 13.6529 15.5404 13.6219 15.6171C13.5909 15.6939 13.5389 15.7604 13.472 15.8091C13.405 15.8577 13.3256 15.8866 13.2431 15.8923C13.1605 15.8981 13.0779 15.8805 13.0048 15.8416L9.1565 13.8182C8.90293 13.6851 8.62082 13.6155 8.33442 13.6155C8.04802 13.6155 7.7659 13.6851 7.51233 13.8182L3.66483 15.8416C3.59178 15.8803 3.50933 15.8977 3.42688 15.8918C3.34442 15.8859 3.26527 15.857 3.19841 15.8084C3.13156 15.7598 3.07969 15.6934 3.04871 15.6168C3.01773 15.5401 3.00888 15.4563 3.02317 15.3749L3.75733 11.0924C3.80583 10.8097 3.78482 10.5194 3.69611 10.2466C3.60741 9.97382 3.45367 9.72671 3.24817 9.52658L0.134833 6.49574C0.0753279 6.43827 0.0331608 6.36524 0.0131351 6.28497C-0.00689053 6.2047 -0.00396948 6.12043 0.0215654 6.04174C0.0471003 5.96305 0.0942223 5.89311 0.157564 5.8399C0.220905 5.78668 0.297919 5.75233 0.379833 5.74074L4.684 5.11158C4.96755 5.07033 5.23682 4.96079 5.46865 4.7924C5.70048 4.62401 5.88792 4.4018 6.01483 4.14491L7.939 0.245745Z" fill="url(#paint0_linear_0_339)"/>
<defs>
<linearGradient id="paint0_linear_0_339" x1="-2.8387e-10" y1="7.9467" x2="16.6682" y2="7.9467" gradientUnits="userSpaceOnUse">
<stop offset="0.615385" stop-color="#F4ED1E"/>
<stop offset="0.615485" stop-color="#0A1930"/>
</linearGradient>
</defs>
</svg>
