<svg preserveAspectRatio="none" width="100%" height="100%" overflow="visible" style="display: block;" viewBox="0 0 20 20" fill="none" xmlns="http://www.w3.org/2000/svg">
<g id="Icon" clip-path="url(#clip0_0_243)">
<path id="Vector" d="M14.1667 1.66667H5.83333C3.53215 1.66667 1.66667 3.53215 1.66667 5.83333V14.1667C1.66667 16.4679 3.53215 18.3333 5.83333 18.3333H14.1667C16.4679 18.3333 18.3333 16.4679 18.3333 14.1667V5.83333C18.3333 3.53215 16.4679 1.66667 14.1667 1.66667Z" stroke="var(--stroke-0, white)" stroke-width="1.66667" stroke-linecap="round" stroke-linejoin="round"/>
<path id="Vector_2" d="M13.3333 9.47525C13.4362 10.1688 13.3177 10.8771 12.9948 11.4994C12.6719 12.1218 12.161 12.6264 11.5347 12.9416C10.9084 13.2569 10.1987 13.3666 9.5065 13.2552C8.81428 13.1438 8.17481 12.817 7.67904 12.3212C7.18327 11.8255 6.85645 11.186 6.74507 10.4938C6.63368 9.80154 6.7434 9.09183 7.05862 8.46556C7.37383 7.8393 7.8785 7.32837 8.50083 7.00545C9.12316 6.68254 9.83147 6.56407 10.525 6.66692C11.2324 6.77182 11.8874 7.10147 12.3931 7.60717C12.8988 8.11288 13.2284 8.76782 13.3333 9.47525Z" stroke="var(--stroke-0, white)" stroke-width="1.66667" stroke-linecap="round" stroke-linejoin="round"/>
<path id="Vector_3" d="M14.5833 5.41667H14.5917" stroke="var(--stroke-0, white)" stroke-width="1.66667" stroke-linecap="round" stroke-linejoin="round"/>
</g>
<defs>
<clipPath id="clip0_0_243">
<rect width="20" height="20" fill="white"/>
</clipPath>
</defs>
</svg>
